<?xml version="1.0" standalone="no"?><!DOCTYPE svg PUBLIC "-//W3C//DTD SVG 1.1//EN" "http://www.w3.org/Graphics/SVG/1.1/DTD/svg11.dtd"><svg t="1732761267122" class="icon" viewBox="0 0 1024 1024" version="1.1" xmlns="http://www.w3.org/2000/svg" p-id="4269" xmlns:xlink="http://www.w3.org/1999/xlink" width="200" height="200"><path d="M559.179378 374.101333l49.265778 28.444445-142.222223 246.328889-49.265777-28.444445z" fill="#2EA7E0" p-id="4270"></path><path d="M345.261511 614.4512l-66.4064-70.126933c-3.512889-3.709156-10.685156-11.329422-12.673422-13.602134-5.906489-6.755556-16.829156-25.278578 9.224533-51.332266l70.395734-70.397156 40.226133 40.226133-61.061689 61.063112 61.602133 65.052444-41.307022 39.1168zM678.856533 615.741156l-38.700089-41.696712 64.172089-59.561244-64.9856-65.314133 40.327111-40.125156 70.017423 70.370133c5.548089 5.576533 11.374933 11.4432 12.947911 13.034667 5.711644 5.782756 8.758044 13.509689 8.578844 21.755733-0.233244 10.710756-5.967644 21.354667-17.048178 31.635912l-75.309511 69.9008z" fill="#00A29A" p-id="4271"></path><path d="M512.779378 931.669333c-9.749333 0-18.952533-2.343822-26.6112-6.782577l-318.380089-184.391112c-15.613156-9.042489-26.500267-27.959467-26.476089-46.001777l0.504889-367.934578c0.024178-18.042311 10.962489-36.929422 26.601244-45.929245L487.305956 97.102222c7.623111-4.387556 16.775111-6.7072 26.467555-6.7072 9.747911 0 18.949689 2.343822 26.608356 6.779734l318.382933 184.403911c15.613156 9.041067 26.500267 27.959467 26.474667 46.004622l-0.503467 367.926044c-0.027022 18.042311-10.963911 36.928-26.5984 45.929245l-318.893511 183.523555c-7.618844 4.387556-16.773689 6.7072-26.464711 6.7072zM198.202311 692.370489l314.574222 182.188089 315.074845-181.327645 0.497778-363.527111-314.5728-182.198044-315.074845 181.331911-0.4992 363.5328z" fill="#00A29A" p-id="4272"></path></svg>